<?xml version="1.0" standalone="no"?>
<!DOCTYPE svg PUBLIC "-//W3C//DTD SVG 20010904//EN"
 "http://www.w3.org/TR/2001/REC-SVG-20010904/DTD/svg10.dtd">
<svg version="1.0" xmlns="http://www.w3.org/2000/svg"
 width="1425.000000pt" height="1397.000000pt" viewBox="0 0 1425.000000 1397.000000"
 preserveAspectRatio="xMidYMid meet">

<g transform="translate(0.000000,1397.000000) scale(0.100000,-0.100000)"
fill="#000000" stroke="none">
<path d="M9290 13906 c-80 -22 -134 -52 -188 -102 -33 -32 -375 -500 -962
-1323 l-910 -1273 19 -27 c10 -14 503 -703 1094 -1529 l1075 -1504 83 -50
c142 -85 337 -226 487 -351 47 -39 87 -66 92 -61 5 5 908 1268 2008 2807 2193
3068 2042 2847 2042 2998 0 154 -94 309 -229 378 -103 53 7 51 -2366 50 -1725
-1 -2210 -3 -2245 -13z"/>
</g>
</svg>
